# xmcd CD database file
#
# Track frame offsets:
#	150
#	37905
#	64537
#	99242
#	119812
#	149345
#	185782
#	212350
#	241257
#	259902
#	285710
#	320190
#
# Disc length: 4633 seconds
#
# Revision: 1
# Processed by: cddbd v1.4PL0 Copyright (c) Steve Scherf et al.
# Submitted via: CDex 1.50beta9
#
DISCID=b612170c
DTITLE=Various Artist - React 2
DYEAR=1996
DGENRE=New Age
TTITLE0=The Age of Love - The Age of Love '97
TTITLE1=Mrs Wood Feat. Eve Gallagher - Heartbreak
TTITLE2=Shimmon and Woolfson - Evil Queen
TTITLE3=GTO - Seventh Wave
TTITLE4=Zouk Presents Transcendental Experience - Vertigo
TTITLE5=SEB - Rainbow Islands
TTITLE6=S-J - Fever
TTITLE7=Aldo Bender - Enlightenment
TTITLE8=Blu Peter - Together
TTITLE9=Mrs Wood - Whodunnit?
TTITLE10=Sharkey - Revolution Pt 3
TTITLE11=GTO - Kardiophunk
EXTD=YEAR: 1996
EXTT0=
EXTT1=
EXTT2=
EXTT3=
EXTT4=
EXTT5=
EXTT6=
EXTT7=
EXTT8=
EXTT9=
EXTT10=
EXTT11=
PLAYORDER=
